Coordinates
version=1
nRows=19
nColumns=34
inDegrees=yes

Units are S.I. units (second, meters, Newtons, ...)
If the header above contains a line with 'inDegrees', this indicates whether rotational values are in degrees (yes) or radians (no).

endheader
time	bJoint_0	bJoint_1	bJoint_2	bJoint_3	bJoint_4	bJoint_5	seatpos	slocangle	soarinout	sblpos	plocangle	poarinout	pblpos	hipangle	kneeangle	footangle	lbackangle	uarmleft_out	uarmleft_trn	uarmleft_up	se_inout	se_updown	handleleft_out	handleleft_trn	handleleft_up	uarmright_out	uarmright_trn	uarmright_up	pe_inout	pe_updown	handleright_out	handleright_trn	handleright_up
      7.52000000	      0.00000000	     -0.00000000	     -0.00000000	     -0.00000000	      0.00000000	     -0.00000000	     -0.17324036	     20.90241770	     17.67831829	    -17.61299102	     19.60318083	     16.30257959	    -11.73735532	     59.04171097	     70.55117463	     39.59288560	      2.46054568	    -57.32541827	    -85.21643234	    -21.81713902	      5.35206538	     -6.62560343	    -30.07360275	     55.69012012	     77.99089655	    -87.53362481	    -92.60790447	    -51.10059352	      1.97843297	     -5.73953376	     42.86087526	    -56.58786889	     90.12366444
      7.54000000	      0.00000000	      0.00000000	     -0.00000000	      0.00000000	      0.00000000	     -0.00000000	     -0.17248528	     20.69414639	     17.67394555	    -17.56815795	     19.39525098	     16.29324118	    -11.70939946	     59.12444353	     70.39002441	     39.51446794	      2.36184142	    -57.36343230	    -85.27791075	    -21.70967078	      5.59640985	     -6.61909894	    -30.20342594	     55.54116474	     78.05149651	    -87.61388403	    -92.72682410	    -51.04296872	      2.11122827	     -5.74892597	     42.99254945	    -56.48607682	     90.17594469
      7.56000000	      0.00000000	     -0.00000000	     -0.00000000	      0.00000000	     -0.00000000	      0.00000000	     -0.17166753	     20.48864447	     17.66392032	    -17.53025568	     19.20015692	     16.28748886	    -11.67818472	     59.21424031	     70.21513763	     39.42937794	      2.27507141	    -57.40343684	    -85.33453762	    -21.59840107	      5.83548053	     -6.62375827	    -30.33834022	     55.39436228	     78.11589066	    -87.68870971	    -92.83217947	    -50.98932019	      2.22020270	     -5.76109928	     43.11452300	    -56.40407324	     90.21833895
      7.58000000	      0.00000000	      0.00000000	     -0.00000000	      0.00000000	     -0.00000000	     -0.00000000	     -0.16967101	     20.30088233	     17.69810811	    -17.69858826	     18.99434712	     16.30258923	    -11.74655507	     59.43436453	     69.78653107	     39.22089559	      2.24948293	    -57.28361097	    -85.54966666	    -21.44185720	      5.59433727	     -6.52922358	    -30.70418847	     55.58321481	     78.38072406	    -87.74493044	    -93.02277274	    -51.00802128	      1.95625098	     -5.61075996	     43.44044315	    -56.55583748	     90.48798028
      7.60000000	      0.00000000	     -0.00000000	     -0.00000000	     -0.00000000	     -0.00000000	      0.00000000	     -0.16890149	     20.09445950	     17.68217589	    -17.63351542	     18.80384531	     16.29512368	    -11.71781857	     59.51954208	     69.62071977	     39.14026185	      2.16269625	    -57.32791294	    -85.61089813	    -21.32310586	      5.85207803	     -6.55262262	    -30.85126079	     55.42231260	     78.44978763	    -87.81678423	    -93.12877167	    -50.96009652	      2.06785059	     -5.61344331	     43.56147995	    -56.47108197	     90.53537747
      7.62000000	      0.00000000	     -0.00000000	     -0.00000000	     -0.00000000	      0.00000000	     -0.00000000	     -0.16873542	     19.90841376	     17.65707608	    -17.51946393	     18.60533234	     16.28464296	    -11.66040817	     59.53795028	     69.58488841	     39.12283868	      2.01590175	    -56.41836826	    -87.40979941	    -20.37500697	      4.67515430	     -6.52991381	    -33.68495192	     56.18023880	     80.83007570	    -87.90867988	    -93.58671489	    -50.98853593	      1.73857726	     -5.50384331	     44.06896566	    -56.58289862	     90.96129041
      7.64000000	      0.00000000	     -0.00000000	     -0.00000000	      0.00000000	      0.00000000	     -0.00000000	     -0.16808666	     19.71234140	     17.65687127	    -17.50005952	     18.41373928	     16.28230869	    -11.64171664	     59.60994391	     69.44476274	     39.05470665	      1.91272857	    -56.47375832	    -87.47214486	    -20.29055823	      4.92022882	     -6.55041809	    -33.78993554	     56.03191139	     80.85074237	    -87.97710332	    -93.70226562	    -50.94579533	      1.85297315	     -5.49738486	     44.17842337	    -56.49786309	     90.99670772
      7.66000000	      0.00000000	     -0.00000000	     -0.00000000	      0.00000000	      0.00000000	     -0.00000000	     -0.16675336	     19.53374143	     17.68565945	    -17.64528636	     18.21720339	     16.29290876	    -11.69673853	     59.75832834	     69.15600182	     38.91433016	      1.85019499	    -56.49678228	    -87.50453648	    -20.25185371	      4.97695130	     -6.48456020	    -33.85048587	     56.02108782	     80.85099990	    -88.08143854	    -93.86421579	    -50.89325653	      1.74307163	     -5.59630645	     44.39974284	    -56.55209552	     91.05775712
      7.68000000	      0.00000000	      0.00000000	     -0.00000000	     -0.00000000	     -0.00000000	      0.00000000	     -0.16600445	     19.33140791	     17.67860854	    -17.59505285	     18.02493557	     16.28882533	    -11.67648744	     59.84192783	     68.99334329	     38.83527112	      1.75540422	    -56.55597930	    -87.56737884	    -20.15893807	      5.22658040	     -6.51751971	    -33.97222745	     55.86836995	     80.88237574	    -88.15203131	    -93.96753459	    -50.84741898	      1.86301191	     -5.60145575	     44.50432524	    -56.46591579	     91.08279949
      7.70000000	      0.00000000	      0.00000000	     -0.00000000	     -0.00000000	      0.00000000	     -0.00000000	     -0.16472951	     19.14613111	     17.69326063	    -17.66913648	     17.83670413	     16.30627682	    -11.75560793	     59.98467675	     68.71564681	     38.70032356	      1.68630428	    -56.27839609	    -88.35458656	    -19.74753020	      4.70806131	     -6.64954329	    -35.26757603	     56.20869619	     81.84017224	    -88.18791706	    -94.05197770	    -50.78998501	      1.87261294	     -5.59141475	     44.61670131	    -56.46822772	     91.10200469
      7.72000000	      0.00000000	      0.00000000	     -0.00000000	      0.00000000	      0.00000000	      0.00000000	     -0.16396414	     18.94615311	     17.66961667	    -17.59498025	     17.65214147	     16.29154958	    -11.71414558	     60.07062788	     68.54847071	     38.61909859	      1.60784622	    -56.34538531	    -88.40439280	    -19.65654239	      4.98988603	     -6.68320549	    -35.39302464	     56.02899368	     81.88869507	    -88.26355481	    -94.15123677	    -50.74517609	      1.99625343	     -5.60577827	     44.73617928	    -56.37362662	     91.14567760
      7.74000000	      0.00000000	     -0.00000000	     -0.00000000	     -0.00000000	     -0.00000000	     -0.00000000	     -0.16323467	     18.75572086	     17.66195021	    -17.53529653	     17.46608870	     16.28294018	    -11.67511236	     60.15273171	     68.38879821	     38.54152992	      1.51955331	    -56.39914074	    -88.46205711	    -19.58217160	      5.22742318	     -6.69106620	    -35.50281384	     55.88379246	     81.92402961	    -88.33816876	    -94.25825466	    -50.69990016	      2.10733193	     -5.62556786	     44.85077644	    -56.28934222	     91.17561731
      7.76000000	      0.00000000	     -0.00000000	     -0.00000000	     -0.00000000	      0.00000000	      0.00000000	     -0.16135167	     18.57385380	     17.67570757	    -17.60139151	     17.25278782	     16.26295234	    -11.56598672	     60.36550306	     67.97510076	     38.34060383	      1.50992020	    -56.43556649	    -88.52728253	    -19.50901013	      5.18721159	     -6.71942404	    -35.67858333	     55.93279266	     81.98214596	    -88.44503601	    -94.37658689	    -50.66806042	      2.05840000	     -5.64635879	     45.10805106	    -56.29899654	     91.32351266
      7.78000000	      0.00000000	     -0.00000000	     -0.00000000	      0.00000000	     -0.00000000	     -0.00000000	     -0.16061007	     18.37276462	     17.66913649	    -17.55392078	     17.06207954	     16.25969544	    -11.54798036	     60.44963288	     67.81156123	     38.26119411	      1.41243738	    -56.49283217	    -88.59634634	    -19.43035031	      5.43574564	     -6.73489926	    -35.80049797	     55.78135219	     82.01795922	    -88.51371174	    -94.48855707	    -50.62954577	      2.16280075	     -5.64517361	     45.21814586	    -56.22228942	     91.35174938
      7.80000000	      0.00000000	     -0.00000000	     -0.00000000	      0.00000000	     -0.00000000	     -0.00000000	     -0.15973703	     18.18678565	     17.67411981	    -17.59193304	     16.86883940	     16.27655655	    -11.62869196	     60.54891995	     67.61858448	     38.16750443	      1.29702966	    -56.21463765	    -90.21309118	    -19.18346159	      4.41160417	     -6.61396660	    -38.50720964	     56.39470951	     84.30452939	    -88.60773196	    -94.85027199	    -50.71545585	      1.80498975	     -5.47761605	     45.63720739	    -56.39323862	     91.69920340
      7.82000000	      0.00000000	     -0.00000000	     -0.00000000	     -0.00000000	      0.00000000	      0.00000000	     -0.15906180	     18.00921668	     17.67650043	    -17.61555611	     16.69074186	     16.27308886	    -11.62787859	     60.62589132	     67.46900063	     38.09489195	      1.20409107	    -56.27241739	    -90.27681714	    -19.12825051	      4.61701340	     -6.63374701	    -38.59766788	     56.27412598	     84.30820797	    -88.67337133	    -94.95362549	    -50.67834669	      1.90864338	     -5.48514859	     45.73493332	    -56.31829404	     91.71553174
      7.84000000	      0.00000000	      0.00000000	     -0.00000000	     -0.00000000	     -0.00000000	      0.00000000	     -0.15769862	     17.82855824	     17.67752350	    -17.61144388	     16.50842524	     16.26878245	    -11.59496313	     60.78177418	     67.16611529	     37.94788948	      1.16352283	    -56.33431179	    -90.35312911	    -19.07608702	      4.69153237	     -6.65989125	    -38.77113734	     56.23947065	     84.37669305	    -88.75944803	    -95.05383784	    -50.64434145	      1.89602608	     -5.52590456	     45.90394597	    -56.31690133	     91.77260437
      7.86000000	      0.00000000	      0.00000000	     -0.00000000	      0.00000000	      0.00000000	      0.00000000	     -0.15697457	     17.62806962	     17.66885467	    -17.55859034	     16.31491801	     16.26087025	    -11.56564374	     60.86483971	     67.00474517	     37.86958488	      1.06469891	    -56.40373134	    -90.42483765	    -19.01224490	      4.94962994	     -6.68312054	    -38.88641172	     56.08112684	     84.40097350	    -88.83684524	    -95.17384025	    -50.60356448	      2.00430509	     -5.54648737	     46.02263861	    -56.23394556	     91.79679289
      7.88000000	      0.00000000	      0.00000000	     -0.00000000	      0.00000000	      0.00000000	     -0.00000000	     -0.15588923	     17.44127688	     17.67133282	    -17.57832777	     16.12287539	     16.26441232	    -11.57435310	     60.98970870	     66.76220175	     37.75191045	      0.97606632	    -56.58049269	    -91.57327265	    -19.16654522	      4.26425463	     -6.62537092	    -40.86444102	     56.45916442	     86.03675074	    -88.91562330	    -95.52057282	    -50.69806631	      1.65495343	     -5.32559467	     46.46706737	    -56.39463390	     92.20123103
